SplineFontDB: 3.0
FontName: NimboFourteen
FullName: Nimbo Fourteen
FamilyName: NimboFourteen
Weight: Regular
Copyright: Created by trashman with FontForge 2.0 (http://fontforge.sf.net)
UComments: "Scan 6400, cut to 1200, scale 97%" 
Version: 0.1
ItalicAngle: 0
UnderlinePosition: -100
UnderlineWidth: 50
Ascent: 660
Descent: 340
LayerCount: 3
Layer: 0 0 "Back"  1
Layer: 1 0 "Fore"  0
Layer: 2 0 "backup"  0
NeedsXUIDChange: 1
XUID: [1021 658 797806517 11461781]
OS2Version: 0
OS2_WeightWidthSlopeOnly: 0
OS2_UseTypoMetrics: 1
CreationTime: 1288472788
ModificationTime: 1288602328
OS2TypoAscent: 0
OS2TypoAOffset: 1
OS2TypoDescent: 0
OS2TypoDOffset: 1
OS2TypoLinegap: 0
OS2WinAscent: 0
OS2WinAOffset: 1
OS2WinDescent: 0
OS2WinDOffset: 1
HheadAscent: 0
HheadAOffset: 1
HheadDescent: 0
HheadDOffset: 1
OS2Vendor: 'PfEd'
MarkAttachClasses: 1
DEI: 91125
Encoding: UnicodeBmp
UnicodeInterp: none
NameList: Adobe Glyph List
DisplaySize: -48
AntiAlias: 1
FitToEm: 1
WinInfo: 84 12 4
BeginPrivate: 9
BlueValues 7 [-12 0]
OtherBlues 2 []
BlueScale 8 0.039625
BlueShift 1 7
BlueFuzz 1 0
StdHW 4 [36]
StemSnapH 28 [20 25 30 36 44 48 63 79 86]
StdVW 4 [66]
StemSnapV 28 [65 66 68 71 72 75 78 80 84]
EndPrivate
BeginChars: 65537 64

StartChar: a
Encoding: 97 97 0
Width: 364
VWidth: 0
Flags: HWO
HStem: -11 40<78.5 176.064> -9 45<253 317.059> 319 37<122.162 201.662>
VStem: 20 74<39.3641 110.65> 32 80<252.241 298.104> 216 58<46.4233 158.998 173.408 307.142>
LayerCount: 3
Fore
SplineSet
266 -9 m 0x6c
 240 -9 224 8 219 26 c 0
 217 35 217 36 214 36 c 0x6c
 211 36 199 25 191 19 c 0
 175 6 144 -11 101 -11 c 0
 56 -11 20 21 20 62 c 0xb4
 20 118 85 141 141 158 c 0
 164 165 185 171 200 175 c 0
 211 178 215 184 215 195 c 2
 215 235 l 2
 215 272 213 319 162 319 c 0
 138 319 114 312 112 292 c 0
 109 271 89 238 56 238 c 0
 40 238 32 249 32 262 c 0
 32 279 48 295 68 309 c 0
 99 331 160 356 187 356 c 0
 239 356 275 340 275 250 c 0
 275 182 274 111 274 85 c 0
 274 54 274 36 295 36 c 0
 301 36 307 38 315 47 c 0
 321 53 330 50 330 38 c 0
 330 9 296 -9 266 -9 c 0x6c
94 83 m 0xb4
 94 45 121 29 154 29 c 0
 171 29 188 35 200 46 c 0
 209 55 216 66 216 79 c 2
 216 149 l 2
 216 156 213 159 209 159 c 0
 208 159 207 158 205 158 c 0
 182 151 94 135 94 83 c 0xb4
EndSplineSet
EndChar

StartChar: b
Encoding: 98 98 1
Width: 429
VWidth: 0
Flags: HW
HStem: -11 26<157.321 262.295> -4 21G<57 67.5> 321 31<165.564 260.446>
VStem: 53 59<47.1411 546.001> 59 63<217.08 633.974> 337 62<81.5898 249.512>
LayerCount: 3
Fore
SplineSet
235 352 m 0x74
 310 352 399 289 399 172 c 0
 399 99 357 -11 211 -11 c 0xb4
 135 -11 110 12 91 12 c 0
 78 12 73 -4 62 -4 c 0
 52 -4 53 7 53 19 c 0x74
 59 200 59 521 59 549 c 0
 59 561 53 577 46 582 c 2
 24 596 l 2
 20 599 18 603 18 606 c 0
 18 611 23 616 30 618 c 0
 57 627 108 645 113 645 c 0
 116 645 122 644 122 633 c 0x6c
 122 604 112 335 112 324 c 0
 112 311 111 306 115 306 c 0
 117 306 122 309 128 314 c 0
 151 333 190 352 235 352 c 0x74
214 15 m 0
 286 15 337 88 337 167 c 0
 337 251 280 321 199 321 c 0
 158 321 112 286 112 274 c 2
 112 117 l 2
 112 62 138 15 214 15 c 0
EndSplineSet
EndChar

StartChar: c
Encoding: 99 99 2
Width: 352
VWidth: 0
Flags: HW
HStem: -13 42<149.883 282.89> 321 33<145.063 255.073>
VStem: 23 58<98.5958 254.298>
LayerCount: 3
Fore
SplineSet
223 354 m 0
 259 354 326 348 326 312 c 0
 326 289 309 283 297 283 c 0
 271 283 263 302 248 310 c 0
 236 316 228 321 204 321 c 0
 126 321 81 253 81 187 c 0
 81 143 94 106 116 78 c 0
 140 48 181 29 221 29 c 0
 249 29 277 40 299 58 c 0
 305 63 309 66 314 66 c 0
 320 66 322 61 322 57 c 0
 322 46 317 36 308 27 c 0
 280 -1 239 -13 197 -13 c 0
 92 -13 23 49 23 162 c 0
 23 276 105 354 223 354 c 0
EndSplineSet
EndChar

StartChar: d
Encoding: 100 100 3
Width: 445
VWidth: 0
Flags: HW
HStem: -6 32<149.787 250.26> 22 28<379.322 415.947> 318 24<173.241 266.48>
VStem: 33 62<76.7247 239.552> 315 52<326.998 578.316>
LayerCount: 3
Fore
SplineSet
183 -6 m 0xb8
 81 -6 33 52 33 149 c 0
 33 263 120 342 228 342 c 0
 252 342 274 338 290 333 c 0
 300 330 306 327 309 327 c 0
 314 327 315 324 315 337 c 0
 315 349 313 475 312 544 c 0
 312 569 306 574 280 584 c 0
 261 591 269 600 276 604 c 0
 292 612 296 614 314 624 c 0
 326 631 352 649 358 649 c 0
 370 649 368 633 368 626 c 0
 368 600 367 498 367 50 c 0
 367 44 368 38 374 38 c 0
 379 38 407 50 410 50 c 0
 414 50 416 42 416 34 c 0
 416 29 416 24 412 22 c 0x78
 386 11 348 -4 329 -11 c 0
 324 -13 319 -15 316 -15 c 0
 308 -15 308 -9 308 7 c 2
 308 38 l 2
 308 50 307 50 298 42 c 0
 279 25 239 -6 183 -6 c 0xb8
216 318 m 0
 150 318 95 246 95 173 c 0
 95 98 124 26 204 26 c 0xb8
 258 26 308 60 308 89 c 2
 308 220 l 2
 308 290 268 318 216 318 c 0
EndSplineSet
EndChar

StartChar: e
Encoding: 101 101 4
Width: 376
VWidth: 0
Flags: HW
HStem: -8.73 46.56<149.114 277.777> 238.62 19.4<98.8744 259.81> 346.29 24.25<155.944 246.858>
VStem: 17.31 72.75<103.049 237.196> 268.54 68.87<252.685 316.756>
LayerCount: 3
Fore
SplineSet
205 353 m 0
 285 353 326 299 326 243 c 0
 326 234 325 229 317 229 c 2
 103 231 l 2
 91 231 86 217 86 194 c 0
 86 113 123 30 216 30 c 0
 258 30 297 46 324 73 c 0
 328 77 334 77 334 67 c 0
 334 36 269 -10 195 -10 c 0
 87 -10 27 63 27 168 c 0
 27 278 102 353 205 353 c 0
124 248 m 2
 191 248 l 2
 230 248 265 250 265 286 c 0
 265 308 240 331 208 331 c 0
 134 331 106 273 106 257 c 0
 106 248 113 248 124 248 c 2
EndSplineSet
EndChar

StartChar: f
Encoding: 102 102 5
Width: 281
VWidth: 0
Flags: HW
HStem: -1.94 31.04<141.191 241.461> 306.52 32.98<31.7624 76.5234> 314.28 30.07<133.915 254.137> 605.28 45.59<152.736 253.199>
VStem: 77.6 54.32<33.9048 306.123 344.435 558.997>
LayerCount: 3
Fore
SplineSet
275 617 m 0xd8
 275 599 257 588 236 588 c 0
 207 588 203 605 184 605 c 0
 175 605 167 601 159 593 c 0
 140 574 132 535 132 493 c 2
 132 359 l 2
 132 344 132 344 146 344 c 2
 246 344 l 2
 252 344 254 341 254 329 c 0
 254 318 253 314 245 314 c 2
 153 314 l 2xb8
 138 314 134 314 134 301 c 0
 134 225 134 150 135 74 c 0
 135.565893467 30.992096487 151 29 196 29 c 2
 219 29 l 2
 235 29 242 25 242 12 c 0
 242 3 236 -2 210 -2 c 0
 179 -2 146 0 109 0 c 0
 85 0 58 -2 39 -2 c 0
 23 -2 23 2 23 14 c 0
 23 35 78 18 78 49 c 0
 78 124 77 240 77 290 c 0
 77 306 70 307 56 307 c 2
 45 307 l 2
 34 307 29 309 29 316 c 0
 29 326 42 331 64 340 c 0
 74 344 78 343 78 353 c 2
 78 431 l 2
 78 577 136 651 221 651 c 0
 244 651 275 645 275 617 c 0xd8
EndSplineSet
EndChar

StartChar: g
Encoding: 103 103 6
Width: 472
VWidth: 0
Flags: HW
HStem: -291 38.8<139.653 297.692> -63.05 64.99<130.99 354.683> 97 22.31<163.932 252.141> 299.73 44.62<352.384 452.02> 308.46 32.01<346.292 430.406> 342.41 27.16<162.578 260.023>
VStem: 32.01 67.9<-217.626 -139.132> 45.59 68.87<4.74213 46.6761 172.827 297.89> 301.67 60.14<163.324 306.552> 369.57 64.02<-177.279 -78.5855>
LayerCount: 3
Fore
SplineSet
39 -198 m 0xeac0
 39 -157 77 -113 112 -87 c 0
 120 -81 124 -77 124 -73 c 0
 124 -69 121 -67 111 -64 c 0
 88 -56 51 -37 51 4 c 0
 51 32 83 42 110 61 c 0
 136 80 150 87 150 93 c 0
 150 97 136 104 119 116 c 0
 90 137 58 168 58 227 c 0
 58 293 131 357 204 357 c 0
 285 357 319 327 333 327 c 0xedc0
 342 327 424 334 429 334 c 0
 445 334 445 333 445 317 c 2
 445 299 l 2
 445 283 436 283 428 283 c 0xf1c0
 418 283 351 293 346 293 c 0
 343 293 340 292 340 290 c 0
 340 287 345 280 349 267 c 0
 353 254 355 247 355 234 c 0
 355 170 316 126 275 104 c 0
 250 90 228 87 203 87 c 0
 195 87 188 88 183 88 c 0
 175 88 170 86 162 81 c 0
 133 60 111 41 111 28 c 0xe9c0
 111 -2 156 -6 180 -6 c 0
 200 -6 272 -5 313 -5 c 0
 382 -5 419 -41 419 -95 c 0
 419 -225 283 -291 191 -291 c 0
 119 -291 39 -271 39 -198 c 0xeac0
222 -258 m 0
 293 -258 361 -207 361 -117 c 0
 361 -74 326 -64 278 -64 c 0
 235 -64 184 -66 163 -67 c 0
 156 -67 151 -66 143 -73 c 0
 122 -91 95 -136 95 -170 c 0
 95 -221 161 -258 222 -258 c 0
204 107 m 0
 276 107 297 159 297 231 c 0
 297 289 262 330 213 330 c 0
 150 330 116 270 116 214 c 0
 116 163 148 107 204 107 c 0
EndSplineSet
EndChar

StartChar: h
Encoding: 104 104 7
Width: 194
VWidth: 0
Flags: W
HStem: 212 100<55.4375 138.562>
VStem: 47 100<220.438 303.562>
LayerCount: 3
Fore
SplineSet
47 262 m 0
 47 290 69 312 97 312 c 0
 125 312 147 290 147 262 c 0
 147 234 125 212 97 212 c 0
 69 212 47 234 47 262 c 0
EndSplineSet
EndChar

StartChar: i
Encoding: 105 105 8
Width: 225
VWidth: 0
Flags: HW
HStem: -1.94 35.89<13.7791 67.3445 142.837 197.163> 497.61 91.18<66.3421 143.178>
VStem: 59.17 91.18<504.782 581.618> 71.78 65.96<39.8153 304.049>
LayerCount: 3
Fore
SplineSet
48 320 m 0xd0
 68 331 86 341 103 355 c 0
 105 356 120 370 126 370 c 0
 129 370 134 369 134 355 c 0
 132 259 131 163 131 67 c 0
 131 39 143 31 161 24 c 0
 182 16 185 18 185 8 c 0
 185 2 179 -2 171 -2 c 0
 149 -2 133 0 107 0 c 0
 90 0 63 -2 58 -2 c 0
 46 -2 33 -2 33 9 c 0
 33 20 47 20 60 26 c 0
 76 33 76 43 76 78 c 2
 76 275 l 2
 76 284 71 288 64 291 c 2
 44 299 l 2
 37 302 35 304 35 307 c 0
 35 312 41 316 48 320 c 0xd0
72 598 m 0xe0
 72 617 88 633 107 633 c 0
 126 633 142 617 142 598 c 0
 142 579 126 564 107 564 c 0
 88 564 72 579 72 598 c 0xe0
EndSplineSet
EndChar

StartChar: j
Encoding: 106 106 9
Width: 223
VWidth: 0
Flags: HW
HStem: -239.59 77.6<-5.86381 55.0709> 497.61 91.18<76.0421 152.878>
VStem: 68.87 91.18<504.782 581.618> 80.51 67.9<-124.766 304.141>
LayerCount: 3
Fore
SplineSet
72 598 m 0xe0
 72 617 88 633 107 633 c 0
 126 633 142 617 142 598 c 0
 142 579 126 564 107 564 c 0
 88 564 72 579 72 598 c 0xe0
73 33 m 2xd0
 73 264 l 2
 73 290 61 301 54 304 c 2
 46 307 l 2
 38 310 35 314 35 317 c 0
 35 324 41 328 51 331 c 0
 78 341 96 351 112 360 c 0
 117 363 124 367 128 367 c 0
 132 367 135 364 135 359 c 0
 135 341 132 237 132 165 c 2
 132 -31 l 2
 132 -95 110 -122 83 -160 c 0
 54 -200 38 -221 14 -221 c 0
 4 -221 2 -207 2 -193 c 0
 2 -181 4 -172 13 -172 c 2
 38 -172 l 2
 43 -172 73 -143 73 33 c 2xd0
EndSplineSet
EndChar

StartChar: k
Encoding: 107 107 10
Width: 194
VWidth: 0
Flags: W
HStem: 212 100<55.4375 138.562>
VStem: 47 100<220.438 303.562>
LayerCount: 3
Fore
SplineSet
47 262 m 0
 47 290 69 312 97 312 c 0
 125 312 147 290 147 262 c 0
 147 234 125 212 97 212 c 0
 69 212 47 234 47 262 c 0
EndSplineSet
EndChar

StartChar: l
Encoding: 108 108 11
Width: 194
VWidth: 0
Flags: W
HStem: 212 100<55.4375 138.562>
VStem: 47 100<220.438 303.562>
LayerCount: 3
Fore
SplineSet
47 262 m 0
 47 290 69 312 97 312 c 0
 125 312 147 290 147 262 c 0
 147 234 125 212 97 212 c 0
 69 212 47 234 47 262 c 0
EndSplineSet
EndChar

StartChar: m
Encoding: 109 109 12
Width: 194
VWidth: 0
Flags: W
HStem: 212 100<55.4375 138.562>
VStem: 47 100<220.438 303.562>
LayerCount: 3
Fore
SplineSet
47 262 m 0
 47 290 69 312 97 312 c 0
 125 312 147 290 147 262 c 0
 147 234 125 212 97 212 c 0
 69 212 47 234 47 262 c 0
EndSplineSet
EndChar

StartChar: n
Encoding: 110 110 13
Width: 479
VWidth: 0
Flags: HW
HStem: -1.94 27.16<27.2168 68.7979 134.432 192.012 274.518 319.917> 317.19 36.86<200.201 292.137>
VStem: 73.72 58.2<26.7536 285.95> 329.8 54.32<32.3488 282.89>
LayerCount: 3
Fore
SplineSet
140 361 m 0
 140 350 128 306 128 296 c 0
 128 290 128 288 130 288 c 0
 135 288 144 297 150 302 c 0
 182 327 215 354 275 354 c 0
 367 354 385 286 385 230 c 0
 385 181 384 129 384 91 c 0
 384 68 384 50 387 40 c 0
 396 11 436 33 436 11 c 0
 436 0 431 -2 421 -2 c 0
 414 -2 366 0 359 0 c 0
 333 0 306 -2 290 -2 c 0
 280 -2 275 1 275 12 c 0
 275 22 286 24 299 25 c 0
 312 26 316 29 320 32 c 0
 329 39 330 74 330 102 c 2
 330 218 l 2
 330 281 287 317 239 317 c 0
 215 317 189 310 168 296 c 0
 153 286 129 275 129 253 c 2
 129 87 l 2
 129 48 133 35 141 30 c 0
 150 24 169 24 181 22 c 0
 188 21 192 18 192 11 c 0
 192 -1 180 -2 163 -2 c 0
 149 -2 122 0 103 0 c 0
 84 0 62 -2 47 -2 c 0
 36 -2 27 0 27 11 c 0
 27 21 35 21 46 23 c 0
 64 27 70 31 72 55 c 0
 73 66 74 178 74 252 c 0
 74 268 74 276 64 288 c 2
 50 304 l 2
 42 312 40 313 53 320 c 0
 82 336 105 353 125 368 c 0
 128 371 131 372 134 372 c 0
 139 372 140 368 140 361 c 0
EndSplineSet
EndChar

StartChar: o
Encoding: 111 111 14
Width: 410
VWidth: 0
Flags: HW
HStem: -11.64 32.98<147.054 252.83> 334.65 28.13<151.773 243.875>
VStem: 18.43 69.84<83.2924 263.905> 306.52 68.87<82.4922 275.071>
LayerCount: 3
Fore
SplineSet
199 323 m 0
 159 323 86 285 86 172 c 0
 86 95 122 18 200 18 c 0
 237 18 303 51 303 178 c 0
 303 258 267 323 199 323 c 0
202 351 m 0
 301 351 364 290 364 173 c 0
 364 71 301 -8 196 -8 c 0
 84 -8 26 76 26 172 c 0
 26 285 109 351 202 351 c 0
EndSplineSet
EndChar

StartChar: p
Encoding: 112 112 15
Width: 194
VWidth: 0
Flags: W
HStem: 212 100<55.4375 138.562>
VStem: 47 100<220.438 303.562>
LayerCount: 3
Fore
SplineSet
47 262 m 0
 47 290 69 312 97 312 c 0
 125 312 147 290 147 262 c 0
 147 234 125 212 97 212 c 0
 69 212 47 234 47 262 c 0
EndSplineSet
EndChar

StartChar: q
Encoding: 113 113 16
Width: 194
VWidth: 0
Flags: W
HStem: 212 100<55.4375 138.562>
VStem: 47 100<220.438 303.562>
LayerCount: 3
Fore
SplineSet
47 262 m 0
 47 290 69 312 97 312 c 0
 125 312 147 290 147 262 c 0
 147 234 125 212 97 212 c 0
 69 212 47 234 47 262 c 0
EndSplineSet
EndChar

StartChar: r
Encoding: 114 114 17
Width: 304
VWidth: 0
Flags: HW
HStem: -1.94 33.95<141.419 217.204> 301.67 61.11<185.755 282.944>
VStem: 71.78 64.02<37.3139 279.339 284.223 295.107>
LayerCount: 3
Fore
SplineSet
252 346 m 0
 266 346 291 341 291 314 c 0
 291 292 276 278 257 278 c 0
 230 278 222 292 191 292 c 0
 173 292 163 285 148 271 c 0
 133 257 130 243 130 214 c 2
 130 72 l 2
 130 28 152 29 188 26 c 0
 202 25 207 20 207 12 c 0
 207 6 204 -2 190 -2 c 0
 168 -2 133 0 107 0 c 0
 89 0 64 -2 52 -2 c 0
 40 -2 30 0 30 11 c 0
 30 20 36 23 49 29 c 0
 65 36 72 43 72 78 c 2
 72 270 l 2
 72 280 65 286 57 290 c 2
 48 295 l 2
 40 299 38 302 38 306 c 0
 38 310 43 314 50 318 c 0
 76 333 113 360 124 367 c 0
 128 369 133 372 137 372 c 0
 140 372 144 370 142 363 c 0
 141 356 127 285 127 281 c 0
 127 278 128 277 130 277 c 0
 134 277 165 305 168 308 c 0
 196 332 222 346 252 346 c 0
EndSplineSet
EndChar

StartChar: s
Encoding: 115 115 18
Width: 311
VWidth: 0
Flags: HW
HStem: -7.76 26.19<78.6088 175.584> 3.88 77.6<24.6326 56.5643> 278.39 67.9<218.206 247.54> 329.8 24.25<127.576 205.294>
VStem: 50.44 58.2<235.257 315.771> 198.85 54.32<36.1916 123.737>
LayerCount: 3
Fore
SplineSet
23 54 m 0x4c
 23 66 26 81 37 81 c 0x4c
 48 81 51 71 57 60 c 0
 73 31 85 18 127 18 c 0
 176 18 199 45 199 77 c 0
 199 160 50 162 50 262 c 0
 50 327 120 354 178 354 c 0x9c
 195 354 210 351 227 346 c 0
 244 341 248 338 248 323 c 2
 248 315 l 2
 248 298 247 278 237 278 c 0x2c
 233 278 229 281 225 288 c 2
 210 312 l 2
 202 325 186 330 170 330 c 0
 136 330 109 312 109 281 c 0
 109 200 253 190 253 100 c 0
 253 29 198 -8 117 -8 c 0x9c
 88 -8 64 -2 46 4 c 0
 29 10 23 6 23 54 c 0x4c
EndSplineSet
EndChar

StartChar: t
Encoding: 116 116 19
Width: 308
VWidth: 0
Flags: HW
HStem: -4.85 42.68<144.766 244.862> 309.43 34.92<133.108 273.527>
VStem: 65.96 61.11<55.899 303.602>
LayerCount: 3
Fore
SplineSet
251 20 m 0
 229 4 190 -5 163 -5 c 0
 115 -5 67 30 67 89 c 0
 67 143 70 281 70 289 c 0
 70 297 69 304 56 304 c 2
 46 304 l 2
 38 304 37 310 37 316 c 0
 37 325 39 325 46 333 c 0
 71 358 82 371 114 410 c 0
 117 414 121 416 125 416 c 0
 129 416 133 413 133 406 c 2
 133 356 l 2
 133 344 133 344 146 344 c 2
 265 344 l 2
 273 344 274 338 274 329 c 2
 274 323 l 2
 274 316 272 309 266 309 c 2
 142 309 l 2
 129 309 126 308 126 297 c 2
 126 125 l 2
 126 60 155 38 192 38 c 0
 210 38 227 42 243 52 c 0
 249 55 258 62 266 62 c 0
 271 62 276 59 276 49 c 0
 276 37 263 29 251 20 c 0
EndSplineSet
EndChar

StartChar: u
Encoding: 117 117 20
Width: 194
VWidth: 0
Flags: W
HStem: 212 100<55.4375 138.562>
VStem: 47 100<220.438 303.562>
LayerCount: 3
Fore
SplineSet
47 262 m 0
 47 290 69 312 97 312 c 0
 125 312 147 290 147 262 c 0
 147 234 125 212 97 212 c 0
 69 212 47 234 47 262 c 0
EndSplineSet
EndChar

StartChar: v
Encoding: 118 118 21
Width: 194
VWidth: 0
Flags: W
HStem: 212 100<55.4375 138.562>
VStem: 47 100<220.438 303.562>
LayerCount: 3
Fore
SplineSet
47 262 m 0
 47 290 69 312 97 312 c 0
 125 312 147 290 147 262 c 0
 147 234 125 212 97 212 c 0
 69 212 47 234 47 262 c 0
EndSplineSet
EndChar

StartChar: w
Encoding: 119 119 22
Width: 194
VWidth: 0
Flags: W
HStem: 212 100<55.4375 138.562>
VStem: 47 100<220.438 303.562>
LayerCount: 3
Fore
SplineSet
47 262 m 0
 47 290 69 312 97 312 c 0
 125 312 147 290 147 262 c 0
 147 234 125 212 97 212 c 0
 69 212 47 234 47 262 c 0
EndSplineSet
EndChar

StartChar: x
Encoding: 120 120 23
Width: 194
VWidth: 0
Flags: W
HStem: 212 100<55.4375 138.562>
VStem: 47 100<220.438 303.562>
LayerCount: 3
Fore
SplineSet
47 262 m 0
 47 290 69 312 97 312 c 0
 125 312 147 290 147 262 c 0
 147 234 125 212 97 212 c 0
 69 212 47 234 47 262 c 0
EndSplineSet
EndChar

StartChar: y
Encoding: 121 121 24
Width: 194
VWidth: 0
Flags: W
HStem: 212 100<55.4375 138.562>
VStem: 47 100<220.438 303.562>
LayerCount: 3
Fore
SplineSet
47 262 m 0
 47 290 69 312 97 312 c 0
 125 312 147 290 147 262 c 0
 147 234 125 212 97 212 c 0
 69 212 47 234 47 262 c 0
EndSplineSet
EndChar

StartChar: z
Encoding: 122 122 25
Width: 194
VWidth: 0
Flags: W
HStem: 212 100<55.4375 138.562>
VStem: 47 100<220.438 303.562>
LayerCount: 3
Fore
SplineSet
47 262 m 0
 47 290 69 312 97 312 c 0
 125 312 147 290 147 262 c 0
 147 234 125 212 97 212 c 0
 69 212 47 234 47 262 c 0
EndSplineSet
EndChar

StartChar: zero
Encoding: 48 48 52
Width: 194
VWidth: 0
Flags: W
HStem: 212 100<55.4375 138.562>
VStem: 47 100<220.438 303.562>
LayerCount: 3
Fore
SplineSet
47 262 m 0
 47 290 69 312 97 312 c 0
 125 312 147 290 147 262 c 0
 147 234 125 212 97 212 c 0
 69 212 47 234 47 262 c 0
EndSplineSet
EndChar

StartChar: one
Encoding: 49 49 53
Width: 194
VWidth: 0
Flags: W
HStem: 212 100<55.4375 138.562>
VStem: 47 100<220.438 303.562>
LayerCount: 3
Fore
SplineSet
47 262 m 0
 47 290 69 312 97 312 c 0
 125 312 147 290 147 262 c 0
 147 234 125 212 97 212 c 0
 69 212 47 234 47 262 c 0
EndSplineSet
EndChar

StartChar: two
Encoding: 50 50 54
Width: 194
VWidth: 0
Flags: W
HStem: 212 100<55.4375 138.562>
VStem: 47 100<220.438 303.562>
LayerCount: 3
Fore
SplineSet
47 262 m 0
 47 290 69 312 97 312 c 0
 125 312 147 290 147 262 c 0
 147 234 125 212 97 212 c 0
 69 212 47 234 47 262 c 0
EndSplineSet
EndChar

StartChar: three
Encoding: 51 51 55
Width: 194
VWidth: 0
Flags: W
HStem: 212 100<55.4375 138.562>
VStem: 47 100<220.438 303.562>
LayerCount: 3
Fore
SplineSet
47 262 m 0
 47 290 69 312 97 312 c 0
 125 312 147 290 147 262 c 0
 147 234 125 212 97 212 c 0
 69 212 47 234 47 262 c 0
EndSplineSet
EndChar

StartChar: four
Encoding: 52 52 56
Width: 194
VWidth: 0
Flags: W
HStem: 212 100<55.4375 138.562>
VStem: 47 100<220.438 303.562>
LayerCount: 3
Fore
SplineSet
47 262 m 0
 47 290 69 312 97 312 c 0
 125 312 147 290 147 262 c 0
 147 234 125 212 97 212 c 0
 69 212 47 234 47 262 c 0
EndSplineSet
EndChar

StartChar: five
Encoding: 53 53 57
Width: 194
VWidth: 0
Flags: W
HStem: 212 100<55.4375 138.562>
VStem: 47 100<220.438 303.562>
LayerCount: 3
Fore
SplineSet
47 262 m 0
 47 290 69 312 97 312 c 0
 125 312 147 290 147 262 c 0
 147 234 125 212 97 212 c 0
 69 212 47 234 47 262 c 0
EndSplineSet
EndChar

StartChar: six
Encoding: 54 54 58
Width: 194
VWidth: 0
Flags: W
HStem: 212 100<55.4375 138.562>
VStem: 47 100<220.438 303.562>
LayerCount: 3
Fore
SplineSet
47 262 m 0
 47 290 69 312 97 312 c 0
 125 312 147 290 147 262 c 0
 147 234 125 212 97 212 c 0
 69 212 47 234 47 262 c 0
EndSplineSet
EndChar

StartChar: seven
Encoding: 55 55 59
Width: 194
VWidth: 0
Flags: W
HStem: 212 100<55.4375 138.562>
VStem: 47 100<220.438 303.562>
LayerCount: 3
Fore
SplineSet
47 262 m 0
 47 290 69 312 97 312 c 0
 125 312 147 290 147 262 c 0
 147 234 125 212 97 212 c 0
 69 212 47 234 47 262 c 0
EndSplineSet
EndChar

StartChar: eight
Encoding: 56 56 60
Width: 194
VWidth: 0
Flags: W
HStem: 212 100<55.4375 138.562>
VStem: 47 100<220.438 303.562>
LayerCount: 3
Fore
SplineSet
47 262 m 0
 47 290 69 312 97 312 c 0
 125 312 147 290 147 262 c 0
 147 234 125 212 97 212 c 0
 69 212 47 234 47 262 c 0
EndSplineSet
EndChar

StartChar: nine
Encoding: 57 57 61
Width: 194
VWidth: 0
Flags: W
HStem: 212 100<55.4375 138.562>
VStem: 47 100<220.438 303.562>
LayerCount: 3
Fore
SplineSet
47 262 m 0
 47 290 69 312 97 312 c 0
 125 312 147 290 147 262 c 0
 147 234 125 212 97 212 c 0
 69 212 47 234 47 262 c 0
EndSplineSet
EndChar

StartChar: .notdef
Encoding: 65536 -1 63
Width: 500
Flags: W
HStem: 0 50<100 400 100 450> 483 50<100 400 100 100>
VStem: 50 50<50 50 50 483> 400 50<50 483 483 483>
LayerCount: 3
Fore
SplineSet
50 0 m 1
 50 533 l 1
 450 533 l 1
 450 0 l 1
 50 0 l 1
100 50 m 1
 400 50 l 1
 400 483 l 1
 100 483 l 1
 100 50 l 1
EndSplineSet
EndChar
